<svg width="32" height="32" viewBox="0 0 32 32" fill="none" xmlns="http://www.w3.org/2000/svg">
<g id="carbon:ibm-cloud-projects">
<path id="Vector" d="M30 18H20V24.468C20.0025 25.4144 20.2724 26.3409 20.7786 27.1406C21.2848 27.9403 22.0067 28.5807 22.861 28.988L25 30L27.139 28.987C27.9933 28.5797 28.7152 27.9393 29.2214 27.1396C29.7276 26.3399 29.9975 25.4134 30 24.467V18ZM25 27.786L23.717 27.179C23.2044 26.9349 22.7712 26.5509 22.4674 26.0712C22.1636 25.5915 22.0016 25.0358 22 24.468V20H28V24.468C27.9982 25.0356 27.8361 25.5912 27.5323 26.0706C27.2285 26.5501 26.7955 26.934 26.283 27.178L25 27.787V27.786ZM17 18H5C4.46957 18 3.96086 18.2107 3.58579 18.5858C3.21071 18.9609 3 19.4696 3 20V25C3 25.5304 3.21071 26.0391 3.58579 26.4142C3.96086 26.7893 4.46957 27 5 27H17V25H5V20H17V18ZM27 4H22C21.4696 4 20.9609 4.21071 20.5858 4.58579C20.2107 4.96086 20 5.46957 20 6V15H22V6H27V15H29V6C29 5.46957 28.7893 4.96086 28.4142 4.58579C28.0391 4.21071 27.5304 4 27 4ZM15 4H5C4.46957 4 3.96086 4.21071 3.58579 4.58579C3.21071 4.96086 3 5.46957 3 6V13C3 13.5304 3.21071 14.0391 3.58579 14.4142C3.96086 14.7893 4.46957 15 5 15H15C15.5304 15 16.0391 14.7893 16.4142 14.4142C16.7893 14.0391 17 13.5304 17 13V6C17 5.46957 16.7893 4.96086 16.4142 4.58579C16.0391 4.21071 15.5304 4 15 4ZM5 13V6H15V13H5Z" fill="black"/>
</g>
</svg>
